<svg xmlns="http://www.w3.org/2000/svg" viewBox="0 0 310 253.81"><defs><style>.cls-1{fill:#ccc;}</style></defs><title>Ресурс 1</title><g id="Слой_2" data-name="Слой 2"><g id="Layer_1" data-name="Layer 1"><path class="cls-1" d="M303,29.29a117.37,117.37,0,0,1-15,5.46A66.26,66.26,0,0,0,301.48,11a5,5,0,0,0-7.32-5.82A118.06,118.06,0,0,1,259.29,19,66.58,66.58,0,0,0,146.16,66.55a68.08,68.08,0,0,0,.54,8.59,170.34,170.34,0,0,1-116.94-62,5,5,0,0,0-8.19.64,66.63,66.63,0,0,0,6.82,76.6,57.26,57.26,0,0,1-8.91-4,5,5,0,0,0-7.42,4.26c0,.29,0,.59,0,.89a66.76,66.76,0,0,0,32.58,57.22c-1.69-.16-3.39-.41-5.07-.73a5,5,0,0,0-5.69,6.44,66.5,66.5,0,0,0,48.74,44.6,117.68,117.68,0,0,1-62.93,18,120.15,120.15,0,0,1-14.09-.82,5,5,0,0,0-3.29,9.17,179.45,179.45,0,0,0,97.05,28.45c67.75,0,110.14-31.95,133.76-58.76,29.46-33.42,46.36-77.66,46.36-121.36,0-1.83,0-3.67-.09-5.51a129.49,129.49,0,0,0,29.78-31.54A5,5,0,0,0,303,29.29Z"/></g></g></svg>