<svg xmlns="http://www.w3.org/2000/svg" viewBox="0 0 25.59 22.36"><defs><style>.cls-1{fill:#3e97eb;}</style></defs><title>Ресурс 3 (2)</title><g id="Слой_2" data-name="Слой 2"><g id="Layer_1" data-name="Layer 1"><path class="cls-1" d="M23.46,0H2.13A2.13,2.13,0,0,0,0,2.13V16a2.13,2.13,0,0,0,2.13,2.13h15l4.23,4.23V18.13h2.13A2.13,2.13,0,0,0,25.59,16V2.13A2.13,2.13,0,0,0,23.46,0Zm1.07,16a1.07,1.07,0,0,1-1.07,1.07h-3.2v2.72l-2.72-2.72H2.13A1.06,1.06,0,0,1,1.07,16V2.13A1.06,1.06,0,0,1,2.13,1.07H23.46a1.07,1.07,0,0,1,1.07,1.06Z"/></g></g></svg>