<svg xmlns="http://www.w3.org/2000/svg" viewBox="0 0 80 80"><defs><style>.cls-1{fill:#fff;}</style></defs><title>Ресурс 1</title><g id="Слой_2" data-name="Слой 2"><g id="Layer_1" data-name="Layer 1"><path class="cls-1" d="M46.13,80a9.38,9.38,0,0,1-9.37-9.37V9.37a2.89,2.89,0,1,0-5.77,0v49a9.37,9.37,0,0,1-18.74,0V33.87a2.89,2.89,0,0,0-5.77,0V49A3.24,3.24,0,0,1,0,49V33.87a9.37,9.37,0,0,1,18.74,0V58.38a2.89,2.89,0,0,0,5.77,0v-49a9.37,9.37,0,1,1,18.73,0V70.63a2.89,2.89,0,1,0,5.77,0v-49a9.37,9.37,0,1,1,18.74,0V46.13a2.89,2.89,0,0,0,5.77,0V31A3.24,3.24,0,1,1,80,31V46.13a9.37,9.37,0,0,1-18.74,0V21.62a2.88,2.88,0,1,0-5.76,0v49A9.38,9.38,0,0,1,46.13,80Z"/></g></g></svg>