<svg xmlns="http://www.w3.org/2000/svg" viewBox="0 0 315 204.31"><defs><style>.cls-1{fill:#ccc;}</style></defs><title>Ресурс 1</title><g id="Слой_2" data-name="Слой 2"><g id="Layer_1" data-name="Layer 1"><path class="cls-1" d="M307.5,81.54H287.71V61.75a7.5,7.5,0,0,0-7.5-7.5H253.49a7.5,7.5,0,0,0-7.5,7.5V81.54H226.2a7.5,7.5,0,0,0-7.5,7.5v26.72a7.5,7.5,0,0,0,7.5,7.5H246v19.79a7.5,7.5,0,0,0,7.5,7.5h26.72a7.5,7.5,0,0,0,7.5-7.5V123.26H307.5a7.5,7.5,0,0,0,7.5-7.5V89.05A7.5,7.5,0,0,0,307.5,81.54Z"/><path class="cls-1" d="M101.91,48.81a47.7,47.7,0,0,1,25.27,7.09l8.51,5.82a7.5,7.5,0,0,0,9.52-.86L170,36.27a7.51,7.51,0,0,0-1-11.52l-14.43-9.89a8.51,8.51,0,0,0-.92-.54l-14-6.9c-.19-.09-.38-.18-.57-.25A102.14,102.14,0,0,0,101.39,0,101.06,101.06,0,0,0,30.33,28.92C11,47.85.19,73.6,0,101.41s10.24,53.72,29.36,72.92c19,19,45.88,30,73.83,30,27.66,0,53.61-10.74,71.2-29.47,13.93-14.83,22.48-34.64,24.72-57.29,0-.21,0-.43,0-.64l.26-20.35a6.52,6.52,0,0,0-.09-1.25l-1.09-7A7.51,7.51,0,0,0,190.82,82H104.15a7.5,7.5,0,0,0-7.5,7.5v30a7.5,7.5,0,0,0,7.5,7.5h44.18a52.27,52.27,0,0,1-9.25,13.48c-8.8,9.52-21.92,15-36,15A53.06,53.06,0,0,1,65.28,140c-20.05-20.44-19.82-56.07.49-76.24A51.72,51.72,0,0,1,101.91,48.81Z"/></g></g></svg>