<svg xmlns="http://www.w3.org/2000/svg" viewBox="0 0 300 299.98"><defs><style>.cls-1{fill:#ccc;}</style></defs><title>Ресурс 1</title><g id="Слой_2" data-name="Слой 2"><g id="Layer_1" data-name="Layer 1"><path class="cls-1" d="M38.52,0h223A38.61,38.61,0,0,1,300,38.51v223A38.6,38.6,0,0,1,261.5,300h-223A38.62,38.62,0,0,1,0,261.49v-223A38.63,38.63,0,0,1,38.52,0Zm180,33.32A13.55,13.55,0,0,0,205,46.84V79.16a13.54,13.54,0,0,0,13.51,13.51h33.9A13.55,13.55,0,0,0,266,79.16V46.84a13.56,13.56,0,0,0-13.51-13.52Zm47.53,93.54H239.69a87.74,87.74,0,0,1,3.86,25.75c0,49.89-41.77,90.34-93.27,90.34S57,202.5,57,152.61a88.08,88.08,0,0,1,3.86-25.75H33.35V253.59a11.93,11.93,0,0,0,11.92,11.9h208.9a11.92,11.92,0,0,0,11.91-11.9ZM150.28,91C117,91,90,117.09,90,149.35s27,58.38,60.24,58.38,60.26-26.15,60.26-58.38S183.56,91,150.28,91Z"/></g></g></svg>