<svg xmlns="http://www.w3.org/2000/svg" viewBox="0 0 308.79 310"><defs><style>.cls-1{fill:#ccc;}</style></defs><title>Ресурс 1</title><g id="Слой_2" data-name="Слой 2"><g id="Layer_1" data-name="Layer 1"><path class="cls-1" d="M89.64,264.83a44.82,44.82,0,1,0-44.82,44.82A44.88,44.88,0,0,0,89.64,264.83Z"/><path class="cls-1" d="M5,169.43A133.58,133.58,0,0,1,100.27,209,135.11,135.11,0,0,1,139.74,305a5,5,0,0,0,5,5h57.49a5,5,0,0,0,5-5c0-111.95-90.7-203-202.19-203a5,5,0,0,0-5,5v57.51A5,5,0,0,0,5,169.43Z"/><path class="cls-1" d="M5.12,0a5,5,0,0,0-5,5V62.49a5,5,0,0,0,5,5C135.36,67.49,241.32,174,241.32,305a5,5,0,0,0,5,5h57.47a5,5,0,0,0,5-5C308.79,136.82,172.56,0,5.12,0Z"/></g></g></svg>