<svg xmlns="http://www.w3.org/2000/svg" viewBox="0 0 19.93 22.06"><defs><style>.cls-1{fill:#3e97eb;}</style></defs><title>Ресурс 2</title><g id="Слой_2" data-name="Слой 2"><g id="Layer_1" data-name="Layer 1"><path class="cls-1" d="M18.72,16.82c-1.14-.48-3.88-1.43-5.56-1.92-.14-.05-.17-.06-.17-.65a3.39,3.39,0,0,1,.41-1.41A7.47,7.47,0,0,0,14,10.93a4.23,4.23,0,0,0,.83-2,2.58,2.58,0,0,0,0-1.67l0-.1A10.7,10.7,0,0,1,14.9,4.8,4.29,4.29,0,0,0,14,1.7,4.66,4.66,0,0,0,10.45,0H9.39A4.6,4.6,0,0,0,5.88,1.7,4.31,4.31,0,0,0,5,4.8a10.86,10.86,0,0,1,.19,2.35s0,.08,0,.11a2.6,2.6,0,0,0,0,1.67,4.36,4.36,0,0,0,.82,2,7.34,7.34,0,0,0,.56,1.91,3.34,3.34,0,0,1,.23,1.43c0,.6,0,.61-.16.65-1.73.51-4.5,1.51-5.53,2a1.56,1.56,0,0,0-1,1.55v2.62a1,1,0,0,0,1,1h17.9a1,1,0,0,0,1-1V18.43a1.84,1.84,0,0,0-1.21-1.61ZM18.88,21H1.05V18.43a.54.54,0,0,1,.39-.59c1-.43,3.74-1.42,5.43-1.92.89-.29.89-1.07.89-1.65a4.31,4.31,0,0,0-.33-1.88A6.23,6.23,0,0,1,7,10.79l0-.31-.2-.24a3.19,3.19,0,0,1-.59-1.51C6,8,6,7.79,6.09,7.65a1.34,1.34,0,0,0,.09-.24v0A11,11,0,0,0,6,4.62a3.3,3.3,0,0,1,.71-2.28A3.56,3.56,0,0,1,9.43,1.05h1a3.63,3.63,0,0,1,2.75,1.29,3.28,3.28,0,0,1,.7,2.28,10.6,10.6,0,0,0-.18,2.76v.07l.06.16v0h0c.06.15.12.33,0,1.09a3.31,3.31,0,0,1-.59,1.51l-.2.24-.05.31a5.88,5.88,0,0,1-.46,1.6,4.38,4.38,0,0,0-.5,1.86c0,.58,0,1.37.91,1.65,1.64.49,4.35,1.42,5.45,1.88a.85.85,0,0,1,.58.65V21Z"/></g></g></svg>