<svg xmlns="http://www.w3.org/2000/svg" viewBox="0 0 26.66 26.66"><defs><style>.cls-1{fill:#fff;}</style></defs><title>Ресурс 1</title><g id="Слой_2" data-name="Слой 2"><g id="Layer_1" data-name="Layer 1"><path class="cls-1" d="M13.33,0h0a13.33,13.33,0,0,0,0,26.66h0A13.33,13.33,0,0,0,13.33,0Zm.53,8A19.85,19.85,0,0,0,18,7.43a23.8,23.8,0,0,1,.69,5.36h-4.8Zm0-1.07V1.15c1.44.4,2.89,2.32,3.82,5.25A18.5,18.5,0,0,1,13.86,6.91ZM12.79,1.14V6.91a18.13,18.13,0,0,1-3.85-.52c.94-2.95,2.41-4.87,3.85-5.25Zm0,6.84v4.81H8a23.89,23.89,0,0,1,.69-5.37A19.57,19.57,0,0,0,12.79,8Zm-5.9,4.81H1.08A12.25,12.25,0,0,1,3.85,5.55,19.29,19.29,0,0,0,7.62,7.14,25.26,25.26,0,0,0,6.89,12.79Zm0,1.07a25.26,25.26,0,0,0,.73,5.65A19.92,19.92,0,0,0,3.85,21.1a12.25,12.25,0,0,1-2.77-7.24Zm1.07,0h4.83v4.82a18.94,18.94,0,0,0-4.14.55A23.81,23.81,0,0,1,8,13.86Zm4.83,5.88v5.78c-1.44-.38-2.91-2.31-3.85-5.27A18.79,18.79,0,0,1,12.79,19.74Zm1.07,5.77V19.74a18.5,18.5,0,0,1,3.82.51C16.75,23.19,15.3,25.11,13.86,25.51Zm0-6.83V13.86h4.8A23.8,23.8,0,0,1,18,19.22a19.76,19.76,0,0,0-4.11-.55Zm5.87-4.82h5.85A12.19,12.19,0,0,1,22.8,21.1,19.24,19.24,0,0,0,19,19.5a25.19,25.19,0,0,0,.72-5.64Zm0-1.07A24.6,24.6,0,0,0,19,7.15a19.59,19.59,0,0,0,3.8-1.6,12.19,12.19,0,0,1,2.78,7.24Zm2.34-8a18.88,18.88,0,0,1-3.35,1.38,12,12,0,0,0-2.54-4.71A12.21,12.21,0,0,1,22.07,4.74ZM10.43,1.41a12,12,0,0,0-2.52,4.7A18.26,18.26,0,0,1,4.59,4.74,12.34,12.34,0,0,1,10.43,1.41ZM4.59,21.91a18.26,18.26,0,0,1,3.32-1.37,11.9,11.9,0,0,0,2.52,4.7,12.21,12.21,0,0,1-5.84-3.33Zm11.59,3.34a11.93,11.93,0,0,0,2.54-4.72,17.92,17.92,0,0,1,3.35,1.39A12.24,12.24,0,0,1,16.18,25.25Z"/></g></g></svg>